<svg width="515" height="405" viewBox="0 0 515 405" xmlns="http://www.w3.org/2000/svg" xmlns:xlink="http://www.w3.org/1999/xlink"><svg viewBox="-5 -5 405 405" width="405" height="405" id="email" xmlns="http://www.w3.org/2000/svg"><path d="M395 320.089V74.911L258.806 197.5zm-197.5-67.407l-38.884-35L22.421 340.271h350.158L236.384 217.682zM372.579 54.729H22.421L197.5 212.318zM0 74.911v245.178L136.194 197.5z"/></svg><svg id="mail" version="1.1" viewBox="-5 -5 74 74" xml:space="preserve" width="74" height="74" x="405" y="110" xmlns="http://www.w3.org/2000/svg"><circle cx="32" cy="32" r="32" fill="#ffcb04"/><path d="M52.9 24.3H11.1c-1.1 0-2 .9-2 2V52c0 1.1.9 1.9 1.9 1.9h42c1.1 0 1.9-.9 1.9-1.9V26.3c0-1.1-.9-2-2-2z" fill="#eb5151"/><path d="M54.4 53.3c-.4.4-.9.6-1.4.6H11c-.5 0-1-.2-1.4-.6l17.9-17.9h8.9l3.7 3.7 14.3 14.2z" fill="#c64444"/><path d="M17.9 24.3H11c-.5 0-1 .2-1.4.6l8.3 8.3v-8.9zm35.1 0h-6.9v8.9l-5.9 5.9 14.2-14.2c-.4-.4-.9-.6-1.4-.6z" fill="#695652"/><path d="M17.9 19.9H12V11c0-1.6 1.3-3 3-3 1.6 0 3 1.3 3 3v8.9z" fill="#baca5b"/><path d="M43.1 8H15c1.6 0 3 1.3 3 3v22.1l5.9 5.9 3.7-3.7h8.9l3.7 3.7 5.9-5.9V11c0-1.7-1.4-3-3-3z" fill="#fff"/><path d="M21 20.4h22v1.4H21zm0 3h22v1.4H21zm0 3.1h22v1.4H21zm3.7 3h14.6v1.4H24.7z" fill="#b3b4b7"/></svg><svg height="110" width="110" viewBox="-5 -5 110 110" id="telegram" x="405" xmlns="http://www.w3.org/2000/svg"><circle cx="50" cy="50" fill="#139BD0" r="45"/><path clip-rule="evenodd" d="M51.474 60.754c-1.733 1.688-3.451 3.348-5.153 5.021-.595.586-1.264.91-2.118.865-.583-.031-.909-.287-1.088-.84-1.304-4.047-2.627-8.084-3.924-12.135-.126-.393-.312-.584-.71-.707a843.741 843.741 0 01-9.199-2.871c-.471-.15-.946-.346-1.353-.623-.629-.426-.721-1.121-.157-1.621a6.227 6.227 0 011.789-1.119c3.755-1.488 7.53-2.928 11.299-4.381 9.565-3.693 19.13-7.383 28.696-11.076 1.819-.703 3.217.287 3.028 2.254-.121 1.258-.447 2.496-.71 3.738a26979.26 26979.26 0 01-6.244 29.42c-.496 2.328-2.131 2.936-4.047 1.523-3.209-2.365-6.415-4.738-9.622-7.107-.153-.111-.312-.218-.487-.341zm-7.203 2.978l.108-.029c.02-.092.049-.182.057-.273.206-2.223.424-4.445.603-6.672.04-.496.21-.848.583-1.182 2.958-2.645 5.898-5.307 8.844-7.963 3.261-2.941 6.523-5.879 9.772-8.832.201-.182.285-.492.423-.744-.306-.033-.634-.156-.912-.084-.379.098-.738.318-1.076.531-7.197 4.533-14.388 9.074-21.59 13.598-.407.256-.483.473-.328.92.531 1.525 1.014 3.064 1.515 4.6l2.001 6.13z" fill="#FFF" fill-rule="evenodd"/></svg></svg>